<svg xmlns="http://www.w3.org/2000/svg" viewBox="0 0 1066.4263 1200"><defs><style>.cls-1{fill:#fe9999;}.cls-2{fill:#feadad;}.cls-3{fill:#fd3b3b;}.cls-4{fill:#fea1a1;}.cls-5{fill:#fed1d1;}.cls-6{fill:#fe9494;}.cls-7{fill:#fff;}.cls-8{fill:#fea3a3;}.cls-9{fill:#febfbf;}.cls-10{fill:#fd7575;}.cls-11{fill:#fe8585;}.cls-12{fill:#fd5959;}.cls-13{fill:#fd6666;}.cls-14{fill:#fe9191;}.cls-15{fill:#fd3838;}.cls-16{fill:#fd4d4d;}.cls-17{fill:#fd4242;}.cls-18{fill:#feb5b5;}.cls-19{fill:#fc0d0d;}.cls-20{fill:#fe8282;}.cls-21{fill:#fc0000;}.cls-22{fill:#fc0a0a;}.cls-23{fill:#fd3333;}</style></defs><title>favicon_red</title><g id="Layer_2" data-name="Layer 2"><g id="Слой_1" data-name="Слой 1"><g id="_Group_" data-name="&lt;Group&gt;"><path class="cls-1" d="M1066.4263,676.78V854.5331c0,29.3434-20.7849,65.27-46.1782,79.942l-153.6768,88.7826c25.2993-14.7657,45.99-50.5986,45.99-79.8479V818.9824l107.6866-62.1667C1045.6414,742.144,1066.4263,706.1231,1066.4263,676.78Z"/><path class="cls-2" d="M1066.4263,499.12V676.78c0,29.3434-20.7849,65.3643-46.1782,80.036L912.5615,818.9824V641.229l107.6866-62.1667C1045.6414,564.3906,1066.4263,528.4637,1066.4263,499.12Z"/><path class="cls-3" d="M1066.4263,345.4436V499.12c0,29.3434-20.7849,65.27-46.1782,79.942L912.5615,641.229V463.57l107.6866-62.1666c22.0075-12.6967,40.5353-41.4758,45.05-67.9977A66.7327,66.7327,0,0,1,1066.4263,345.4436Z"/><path class="cls-4" d="M1030.1233,272.4611c17.4932,14.4836,31.4125,38.56,35.1744,60.9441-4.5143,26.5219-23.0421,55.301-45.05,67.9977L912.5615,463.57V434.32c0-29.3434-20.7849-65.27-46.1783-79.942L840.99,339.7066,948.7705,277.54C970.7781,264.8432,1004.918,263.15,1030.1233,272.4611Z"/><path class="cls-5" d="M1020.9064,265.9718a58.6634,58.6634,0,0,1,9.2169,6.4894c-25.2053-9.3109-59.3452-7.618-81.3528,5.0787L840.99,339.7066,687.125,250.9239l107.7807-62.2607c25.1112-14.5777,66.1167-14.6717,91.51-.3762l133.8323,77.2146a.0921.0921,0,0,1,.094.094A1.9685,1.9685,0,0,1,1020.9064,265.9718Z"/><path class="cls-6" d="M912.5615,818.9824V943.41c0,29.2493-20.6909,65.0822-45.99,79.8479l-154.0529,88.8767c25.3933-14.6717,46.0842-50.5986,46.0842-79.942V907.8591Z"/><polygon class="cls-7" points="912.561 641.229 912.561 818.982 758.603 907.859 758.603 730.106 912.561 641.229"/><polygon class="cls-8" points="912.561 463.57 912.561 641.229 758.603 730.106 758.603 552.446 912.561 463.57"/><path class="cls-7" d="M912.5615,434.32V463.57L758.6026,552.4463V523.197c0-29.3434-20.7849-65.3644-46.1783-79.942L687.125,428.5833,840.99,339.7066l25.3933,14.6717C891.7766,369.05,912.5615,404.9769,912.5615,434.32Z"/><path class="cls-9" d="M733.3033,99.8806,886.4158,188.287c-25.3934-14.2955-66.3989-14.2015-91.51.3762L687.125,250.9239,533.26,162.0471,640.9468,99.8806C666.34,85.2088,707.91,85.2088,733.3033,99.8806Z"/><polygon class="cls-7" points="840.99 339.707 687.125 428.583 533.26 339.801 687.125 250.924 840.99 339.707"/><path class="cls-10" d="M758.6026,907.8591v124.3333c0,29.3434-20.6909,65.27-46.0842,79.942l-.0941.0941L578.592,1189.5371c-.094.094-.1881.094-.3762.1881a61.8208,61.8208,0,0,1-9.7811,4.42c20.6909-17.211,36.3031-47.589,36.3031-73.0764V996.7358Z"/><polygon class="cls-7" points="758.603 730.106 758.603 907.859 604.738 996.736 604.738 818.982 758.603 730.106"/><polygon class="cls-1" points="758.603 552.446 758.603 730.106 604.738 818.982 604.738 641.323 758.603 552.446"/><path class="cls-11" d="M758.6026,523.197v29.2493L604.7378,641.323V612.0737c0-29.3435-20.785-65.3644-46.1783-80.0361L533.26,517.46,687.125,428.5833l25.2993,14.6717C737.8177,457.8326,758.6026,493.8536,758.6026,523.197Z"/><path class="cls-5" d="M579.4385,11.0039,733.3033,99.8806c-25.3933-14.6718-66.9632-14.6718-92.3565,0L533.26,162.0471,425.48,99.8806c-25.3934-14.6718-66.9632-14.6718-92.3566,0L487.0819,11.0039C512.4753-3.6679,554.0451-3.6679,579.4385,11.0039Z"/><polygon class="cls-7" points="687.125 250.924 533.26 339.801 379.395 250.924 533.26 162.047 687.125 250.924"/><polygon class="cls-4" points="687.125 428.583 533.26 517.46 379.395 428.583 533.26 339.801 687.125 428.583"/><path class="cls-12" d="M604.7378,996.7358v124.3333c0,25.4874-15.6122,55.8654-36.3031,73.0764-21.3492,7.8061-49,7.8061-70.349,0-20.6908-17.211-36.3031-47.589-36.3031-73.0764V996.7358l25.2993,14.5776c25.3934,14.6717,66.9632,14.6717,92.3566,0Z"/><path class="cls-7" d="M604.7378,818.9824V996.7358l-25.2993,14.5776c-25.3934,14.6717-66.9632,14.6717-92.3566,0l-25.2993-14.5776V818.9824L487.0819,833.56c25.3934,14.6717,66.9632,14.6717,92.3566,0Z"/><path class="cls-13" d="M604.7378,641.323V818.9824L579.4385,833.56c-25.3934,14.6717-66.9632,14.6717-92.3566,0l-25.2993-14.5776V641.323l25.2993,14.5777c25.3934,14.6717,66.9632,14.6717,92.3566,0Z"/><path class="cls-14" d="M604.7378,612.0737V641.323l-25.2993,14.5777c-25.3934,14.6717-66.9632,14.6717-92.3566,0L461.7826,641.323V612.0737c0-29.3435,20.785-65.3644,46.1783-80.0361L533.26,517.46,558.56,532.0376C583.9528,546.7093,604.7378,582.73,604.7378,612.0737Z"/><path class="cls-15" d="M379.3954,428.5833,533.26,517.46l-25.2993,14.5776c-25.3933,14.6717-46.1783,50.6926-46.1783,80.0361V641.323L307.8238,552.4463V523.197c0-29.3434,20.7849-65.3644,46.1782-79.942Z"/><polygon class="cls-7" points="379.395 250.924 533.26 339.801 379.395 428.583 225.531 339.707 379.395 250.924"/><path class="cls-9" d="M533.26,162.0471,379.3954,250.9239,271.6147,188.6632c-25.1112-14.5777-66.2108-14.6717-91.6041-.3762L333.123,99.8806c25.3934-14.6718,66.9632-14.6718,92.3566,0Z"/><path class="cls-16" d="M498.0857,1194.1455a68.1047,68.1047,0,0,1-10.2514-4.7025l-.7524-.3762L353.908,1112.1344a1.9665,1.9665,0,0,1-.5643-.3762c-25.1112-14.86-45.52-50.5045-45.52-79.5658V907.8591l153.9588,88.8767v124.3333C461.7826,1146.5565,477.3949,1176.9345,498.0857,1194.1455Z"/><polygon class="cls-7" points="461.783 818.982 461.783 996.736 307.824 907.859 307.824 730.106 461.783 818.982"/><polygon class="cls-17" points="461.783 641.323 461.783 818.982 307.824 730.106 307.824 552.446 461.783 641.323"/><path class="cls-18" d="M379.3954,250.9239,225.5305,339.7066,117.75,277.54c-22.1016-12.7907-56.3356-14.39-81.5409-4.9846a60.0769,60.0769,0,0,1,9.3109-6.5835,2.8564,2.8564,0,0,1,.6584-.47l133.08-76.8384.7524-.3762c25.3933-14.2955,66.4929-14.2015,91.6041.3762Z"/><path class="cls-7" d="M379.3954,428.5833,354.002,443.255c-25.3933,14.5776-46.1782,50.5986-46.1782,79.942v29.2493L153.9589,463.57V434.32c0-29.3434,20.7849-65.27,46.1783-79.942l25.3933-14.6717Z"/><path class="cls-19" d="M353.3437,1111.7581l-153.2065-88.4064c-25.3934-14.6717-46.1783-50.5986-46.1783-79.942V818.9824l153.8649,88.8767v124.3333C307.8238,1061.2537,328.2325,1096.8984,353.3437,1111.7581Z"/><polygon class="cls-7" points="307.824 730.106 307.824 907.859 153.959 818.982 153.959 641.229 307.824 730.106"/><polygon class="cls-7" points="307.824 552.446 307.824 730.106 153.959 641.229 153.959 463.57 307.824 552.446"/><path class="cls-20" d="M225.5305,339.7066l-25.3933,14.6717c-25.3934,14.6717-46.1783,50.5986-46.1783,79.942V463.57L46.1783,401.4029c-22.0076-12.6967-40.5353-41.4758-45.05-67.9977,3.762-22.29,17.5873-46.3664,35.08-60.85,25.2053-9.405,59.4393-7.8061,81.5409,4.9846Z"/><path class="cls-21" d="M200.1372,1023.3518,46.1783,934.4751C20.7849,919.8034,0,883.8765,0,854.5331V676.78c0,29.3434,20.7849,65.3643,46.1783,80.036l107.7806,62.1667V943.41C153.9589,972.7532,174.7438,1008.68,200.1372,1023.3518Z"/><path class="cls-22" d="M153.9589,641.229V818.9824L46.1783,756.8157C20.7849,742.144,0,706.1231,0,676.78V499.12c0,29.3434,20.7849,65.27,46.1783,79.942Z"/><path class="cls-23" d="M153.9589,463.57V641.229L46.1783,579.0622C20.7849,564.3906,0,528.4637,0,499.12V345.4436a66.7327,66.7327,0,0,1,1.1286-12.0383c4.5144,26.5219,23.0421,55.301,45.05,67.9977Z"/></g></g></g></svg>