<svg xmlns="http://www.w3.org/2000/svg" viewBox="0 0 1066.4263 1200.0002"><defs><style>.cls-1{fill:#fff;}</style></defs><title>footer_logo</title><g id="Layer_2" data-name="Layer 2"><g id="Слой_1" data-name="Слой 1"><path class="cls-1" d="M1065.2978,333.4053c-3.762-22.3838-17.6814-46.4605-35.1746-60.9444a58.6783,58.6783,0,0,0-9.2168-6.4892,1.9614,1.9614,0,0,0-.5643-.376.0922.0922,0,0,0-.0941-.0942L886.4157,188.2871,733.3033,99.88,579.4384,11.0039c-25.3933-14.6719-66.9632-14.6719-92.3565,0L333.123,99.88,180.0106,188.2871l-.7525.376-133.08,76.8384a2.8634,2.8634,0,0,0-.6584.47,60.0992,60.0992,0,0,0-9.3109,6.5835c-17.4932,14.4834-31.3185,38.56-35.08,60.85A66.7339,66.7339,0,0,0,0,345.4434V854.5327c0,29.3438,20.7849,65.27,46.1783,79.9424l153.9588,88.8765,153.2066,88.4067a1.9617,1.9617,0,0,0,.5642.376l133.174,76.9326.7524.376a68.11,68.11,0,0,0,10.2514,4.7026c21.3492,7.8062,49,7.8062,70.349,0a61.83,61.83,0,0,0,9.7811-4.42c.1881-.0942.2822-.0942.3762-.188l133.8323-77.3086.094-.0942,154.053-88.8765,153.6767-88.7827c25.3934-14.6719,46.1783-50.5986,46.1783-79.9424V345.4434A66.7426,66.7426,0,0,0,1065.2978,333.4053ZM758.6026,907.8589,604.7377,996.7358l-25.2993,14.5777c-25.3933,14.6714-66.9632,14.6714-92.3565,0l-25.2993-14.5777L307.8237,907.8589,153.9589,818.9824V434.32c0-29.3437,20.7849-65.2705,46.1782-79.9419l25.3934-14.6719,153.8648-88.7827L533.26,162.0474,687.125,250.9238,840.99,339.7065l25.3934,14.6719c25.3933,14.6714,46.1782,50.5982,46.1782,79.9419V463.57L758.6026,552.4463v-29.25c0-29.3433-20.7849-65.3643-46.1783-79.9419L687.125,428.583,533.26,339.8,379.3953,428.583,354.002,443.2549c-25.3934,14.5776-46.1783,50.5986-46.1783,79.9419V730.1055l153.9589,88.8769L487.0819,833.56c25.3933,14.6718,66.9632,14.6718,92.3565,0l25.2993-14.5777,153.8649-88.8769L912.5614,641.229V818.9824Z"/></g></g></svg>