<svg xmlns="http://www.w3.org/2000/svg" viewBox="0 0 3166.8815 1200"><defs><style>.cls-1{fill:#a1d307;}.cls-2{fill:#b1e21c;}.cls-3{fill:#ff1469;}.cls-4{fill:#ffad09;}.cls-5{fill:#fae35a;}.cls-6{fill:#80e000;}.cls-7{fill:#fff;}.cls-8{fill:#8eeb11;}.cls-9{fill:#f7d71f;}.cls-10{fill:#83b600;}.cls-11{fill:#ff8a00;}.cls-12{fill:#07a5de;}.cls-13{fill:#ba59eb;}.cls-14{fill:#ff9b03;}.cls-15{fill:#ff1f14;}.cls-16{fill:#09c;}.cls-17{fill:#dc13fd;}.cls-18{fill:#f3d009;}.cls-19{fill:#5612ea;}.cls-20{fill:#f80;}.cls-21{fill:#4d08e2;}.cls-22{fill:#5410e8;}.cls-23{fill:#d800fc;}</style></defs><title>logo-smart</title><g id="Layer_2" data-name="Layer 2"><g id="Слой_1" data-name="Слой 1"><g id="_Group_" data-name="&lt;Group&gt;"><path class="cls-1" d="M1066.4263,676.78V854.533c0,29.3434-20.7849,65.27-46.1783,79.942l-153.6767,88.7826c25.2993-14.7657,45.99-50.5986,45.99-79.8479V818.9823l107.6865-62.1667C1045.6414,742.1439,1066.4263,706.123,1066.4263,676.78Z"/><path class="cls-2" d="M1066.4263,499.12V676.78c0,29.3434-20.7849,65.3643-46.1783,80.036L912.5615,818.9823V641.2289l107.6865-62.1667C1045.6414,564.3905,1066.4263,528.4636,1066.4263,499.12Z"/><path class="cls-3" d="M1066.4263,345.4435V499.12c0,29.3434-20.7849,65.27-46.1783,79.942L912.5615,641.2289V463.57l107.6865-62.1667c22.0076-12.6967,40.5353-41.4758,45.05-67.9977A66.7327,66.7327,0,0,1,1066.4263,345.4435Z"/><path class="cls-4" d="M1030.1232,272.4611c17.4932,14.4836,31.4125,38.56,35.1745,60.9441-4.5144,26.5219-23.0421,55.301-45.05,67.9977L912.5615,463.57V434.32c0-29.3434-20.785-65.27-46.1783-79.942L840.99,339.7065,948.7705,277.54C970.7781,264.8431,1004.918,263.15,1030.1232,272.4611Z"/><path class="cls-5" d="M1020.9064,265.9717a58.658,58.658,0,0,1,9.2168,6.4894c-25.2052-9.3109-59.3451-7.618-81.3527,5.0787L840.99,339.7065,687.125,250.9238l107.7806-62.2607c25.1112-14.5776,66.1168-14.6717,91.51-.3762l133.8323,77.2146a.0921.0921,0,0,1,.0941.094A1.9685,1.9685,0,0,1,1020.9064,265.9717Z"/><path class="cls-6" d="M912.5615,818.9823V943.41c0,29.2493-20.6909,65.0822-45.99,79.8479l-154.0529,88.8767c25.3933-14.6717,46.0842-50.5986,46.0842-79.942V907.859Z"/><polygon class="cls-7" points="912.561 641.229 912.561 818.982 758.603 907.859 758.603 730.106 912.561 641.229"/><polygon class="cls-8" points="912.561 463.57 912.561 641.229 758.603 730.106 758.603 552.446 912.561 463.57"/><path class="cls-7" d="M912.5615,434.32V463.57L758.6026,552.4462V523.1969c0-29.3434-20.7849-65.3644-46.1783-79.942L687.125,428.5832,840.99,339.7065l25.3933,14.6717C891.7765,369.05,912.5615,404.9768,912.5615,434.32Z"/><path class="cls-9" d="M733.3033,99.8805l153.1124,88.4064c-25.3933-14.2955-66.3989-14.2014-91.51.3762L687.125,250.9238,533.26,162.0471,640.9468,99.8805C666.34,85.2088,707.91,85.2088,733.3033,99.8805Z"/><polygon class="cls-7" points="840.99 339.707 687.125 428.583 533.26 339.801 687.125 250.924 840.99 339.707"/><path class="cls-10" d="M758.6026,907.859v124.3333c0,29.3434-20.6909,65.27-46.0842,79.942l-.0941.0941L578.592,1189.537c-.0941.094-.1881.094-.3762.1881a61.8208,61.8208,0,0,1-9.7811,4.42c20.6908-17.211,36.303-47.589,36.303-73.0764V996.7357Z"/><polygon class="cls-7" points="758.603 730.106 758.603 907.859 604.738 996.736 604.738 818.982 758.603 730.106"/><polygon class="cls-1" points="758.603 552.446 758.603 730.106 604.738 818.982 604.738 641.323 758.603 552.446"/><path class="cls-11" d="M758.6026,523.1969v29.2493L604.7377,641.3229V612.0736c0-29.3434-20.7849-65.3644-46.1782-80.0361L533.26,517.46,687.125,428.5832l25.2993,14.6717C737.8177,457.8325,758.6026,493.8535,758.6026,523.1969Z"/><path class="cls-5" d="M579.4384,11.0038,733.3033,99.8805c-25.3934-14.6717-66.9632-14.6717-92.3565,0L533.26,162.0471,425.48,99.8805c-25.3933-14.6717-66.9631-14.6717-92.3565,0L487.0819,11.0038C512.4753-3.6679,554.0451-3.6679,579.4384,11.0038Z"/><polygon class="cls-7" points="687.125 250.924 533.26 339.801 379.395 250.924 533.26 162.047 687.125 250.924"/><polygon class="cls-4" points="687.125 428.583 533.26 517.46 379.395 428.583 533.26 339.801 687.125 428.583"/><path class="cls-12" d="M604.7377,996.7357V1121.069c0,25.4874-15.6122,55.8654-36.303,73.0764-21.3493,7.8061-49,7.8061-70.349,0-20.6909-17.211-36.3031-47.589-36.3031-73.0764V996.7357l25.2993,14.5776c25.3934,14.6718,66.9632,14.6718,92.3565,0Z"/><path class="cls-7" d="M604.7377,818.9823V996.7357l-25.2993,14.5776c-25.3933,14.6718-66.9631,14.6718-92.3565,0l-25.2993-14.5776V818.9823L487.0819,833.56c25.3934,14.6717,66.9632,14.6717,92.3565,0Z"/><path class="cls-13" d="M604.7377,641.3229V818.9823L579.4384,833.56c-25.3933,14.6717-66.9631,14.6717-92.3565,0l-25.2993-14.5777V641.3229l25.2993,14.5777c25.3934,14.6717,66.9632,14.6717,92.3565,0Z"/><path class="cls-14" d="M604.7377,612.0736v29.2493l-25.2993,14.5777c-25.3933,14.6717-66.9631,14.6717-92.3565,0l-25.2993-14.5777V612.0736c0-29.3434,20.7849-65.3644,46.1783-80.0361L533.26,517.46,558.56,532.0375C583.9528,546.7092,604.7377,582.73,604.7377,612.0736Z"/><path class="cls-15" d="M379.3953,428.5832,533.26,517.46l-25.2993,14.5776c-25.3934,14.6717-46.1783,50.6927-46.1783,80.0361v29.2493L307.8237,552.4462V523.1969c0-29.3434,20.7849-65.3644,46.1783-79.942Z"/><polygon class="cls-7" points="379.395 250.924 533.26 339.801 379.395 428.583 225.531 339.707 379.395 250.924"/><path class="cls-9" d="M533.26,162.0471,379.3953,250.9238,271.6147,188.6631c-25.1112-14.5776-66.2108-14.6717-91.6041-.3762L333.123,99.8805c25.3934-14.6717,66.9632-14.6717,92.3565,0Z"/><path class="cls-16" d="M498.0857,1194.1454a68.1047,68.1047,0,0,1-10.2514-4.7025l-.7524-.3762-133.174-76.9324a1.9665,1.9665,0,0,1-.5643-.3762c-25.1111-14.86-45.52-50.5045-45.52-79.5658V907.859l153.9589,88.8767V1121.069C461.7826,1146.5564,477.3948,1176.9344,498.0857,1194.1454Z"/><polygon class="cls-7" points="461.783 818.982 461.783 996.736 307.824 907.859 307.824 730.106 461.783 818.982"/><polygon class="cls-17" points="461.783 641.323 461.783 818.982 307.824 730.106 307.824 552.446 461.783 641.323"/><path class="cls-18" d="M379.3953,250.9238,225.5305,339.7065,117.75,277.54c-22.1017-12.7907-56.3356-14.39-81.5409-4.9846a60.0789,60.0789,0,0,1,9.3109-6.5835,2.8564,2.8564,0,0,1,.6584-.47l133.08-76.8384.7524-.3762c25.3933-14.2955,66.4929-14.2014,91.6041.3762Z"/><path class="cls-7" d="M379.3953,428.5832,354.002,443.2549c-25.3934,14.5776-46.1783,50.5986-46.1783,79.942v29.2493L153.9589,463.57V434.32c0-29.3434,20.7849-65.27,46.1782-79.942l25.3934-14.6717Z"/><path class="cls-19" d="M353.3436,1111.7581l-153.2065-88.4064c-25.3933-14.6717-46.1782-50.5986-46.1782-79.942V818.9823L307.8237,907.859v124.3333C307.8237,1061.2536,328.2325,1096.8983,353.3436,1111.7581Z"/><polygon class="cls-7" points="307.824 730.106 307.824 907.859 153.959 818.982 153.959 641.229 307.824 730.106"/><polygon class="cls-7" points="307.824 552.446 307.824 730.106 153.959 641.229 153.959 463.57 307.824 552.446"/><path class="cls-20" d="M225.5305,339.7065l-25.3934,14.6717c-25.3933,14.6717-46.1782,50.5986-46.1782,79.942V463.57L46.1783,401.4029c-22.0076-12.6967-40.5353-41.4758-45.05-67.9977,3.762-22.29,17.5872-46.3664,35.08-60.85,25.2053-9.405,59.4392-7.8061,81.5409,4.9846Z"/><path class="cls-21" d="M200.1371,1023.3517,46.1783,934.475C20.7849,919.8033,0,883.8764,0,854.533V676.78c0,29.3434,20.7849,65.3643,46.1783,80.036l107.7806,62.1667V943.41C153.9589,972.7531,174.7438,1008.68,200.1371,1023.3517Z"/><path class="cls-22" d="M153.9589,641.2289V818.9823L46.1783,756.8156C20.7849,742.1439,0,706.123,0,676.78V499.12c0,29.3434,20.7849,65.27,46.1783,79.942Z"/><path class="cls-23" d="M153.9589,463.57V641.2289L46.1783,579.0622C20.7849,564.3905,0,528.4636,0,499.12V345.4435a66.7327,66.7327,0,0,1,1.1286-12.0383c4.5144,26.5219,23.0421,55.301,45.05,67.9977Z"/></g><path class="cls-12" d="M1652.769,878.2643q-22.865,66.3783-73.6125,105.42-52.4426,40.6842-121.02,40.7053-88.6974,0-150.5764-60.79-61.9184-60.7908-61.909-149.463,0-87.0121,61.073-146.9529,61.0651-59.9457,148.0507-59.9574,71.9479,0,124.654,39.3268,52.7017,39.3085,72.7846,108.4647h-97.6043q-33.46-65.8052-99.8343-65.8153-51.2988,0-84.195,36.2559-32.9106,36.2589-32.9076,88.1121,0,51.327,33.4576,89.7942,33.4653,38.4909,84.2057,38.478,67.4874,0,99.2736-63.5778Z"/><path class="cls-12" d="M2132.3733,1016.576H2047.044V787.9249q0-12.8121,1.6768-38.4833,1.6662-25.6474,1.6715-38.4726l-.5607.5451-97.0307,305.0619h-61.3455l-96.4807-307.2839-.55.5554q0,12.8516,1.3832,38.4731,1.3836,25.6556,1.3833,38.4882V1016.576h-85.88V615.0389H1833.458L1922.6755,893.33l88.6781-278.2906h121.02Z"/><path class="cls-12" d="M2568.49,1016.576h-99.8342l-25.645-72.491H2299.1235l-26.7718,72.491h-98.1468L2334.258,615.0389h74.7393ZM2417.911,869.3506l-45.725-143.8928-46.8568,143.8928Z"/><path class="cls-12" d="M2700.6606,1016.576h-90.9049V615.0389H2749.734q68.0451,0,106.5207,33.463,41.2651,35.1273,41.2655,102.0509,0,67.4866-44.1845,100.94-39.7014,30.112-109.6119,30.1255h-43.0632Zm0-320.6668V800.7525h40.9146q67.8174,0,67.8383-52.977,0-51.8614-67.8383-51.8663Z"/><path class="cls-12" d="M3166.8815,695.9092h-79.7591V1016.576h-90.9049V695.9092H2917.024v-80.87h249.8575Z"/><path class="cls-12" d="M1288.207,421.49h-42.5556V162.5965h42.5556Z"/><path class="cls-12" d="M1447.9877,421.49h-45.081V203.1346h-69.92v-41.543h184.9187v41.543h-69.9175Z"/><path class="cls-12" d="M1658.9486,263.9278v41.0351H1537.3535V263.9278Z"/><path class="cls-12" d="M1919.9,161.5916V381.4605h104.3537V161.5916h43.5737V421.49H1726.8857V161.5916h43.5633V381.4605h104.3646V161.5916Z"/><path class="cls-12" d="M2183.9465,421.49h-43.5633V161.5916h43.5633V283.681l2.5386-3.0307v3.5441l109.929-122.6028h50.3569L2236.4041,284.6749,2349.2247,421.49h-56.8676l-105.872-133.7495v5.07l-2.5386-4.06Z"/><path class="cls-12" d="M2630.1671,288.2458q0,56.2407-39.5168,98.2793-39.52,42.0527-95.7538,42.0581-56.2282,0-95.7429-40.2891-39.52-40.2611-39.5326-96.5048,0-55.21,39.03-97.2683,38.991-42.0492,93.7116-42.0537,55.2185,0,96.5021,40.2787Q2630.1647,233.0276,2630.1671,288.2458Zm-224.4387,3.2929q0,38.6133,25.3415,66.0422,25.3276,27.4245,63.8266,27.4231,37.9886,0,63.5863-27.6771,25.569-27.7011,25.5769-65.7882,0-39.6126-25.5769-67.0477-25.5846-27.4327-64.6016-27.4341-37.9968,0-63.0734,27.9365Q2405.7529,252.9278,2405.7284,291.5387Z"/><path class="cls-12" d="M2761.546,226.1992,2694.63,421.49H2647.1l96.2349-259.8985h37.5069L2877.0929,421.49h-47.5457Z"/><path class="cls-12" d="M3166.8814,421.49h-42.5528V385.004q-41.5558,42.0616-91.7128,42.0559-58.77,0-97.5173-39.0061-38.7416-39.0189-38.7472-97.7768,0-56.2447,38.5014-95.756,38.501-39.52,94.7434-39.52,53.19,0,92.7013,40.5326v-33.942h44.584ZM2942.4427,290.277q0,39.0026,26.8594,67.1194,26.8359,28.1182,65.8583,28.121,35.47,0,62.3088-28.6289,26.859-28.6118,26.8594-64.0778,0-37.4869-26.3465-66.3767-26.3547-28.88-63.8321-28.8851-37.491,0-64.5967,27.6213Q2942.4458,252.7909,2942.4427,290.277Z"/></g></g></svg>