<svg xmlns="http://www.w3.org/2000/svg" viewBox="0 0 1921.2301 2308.3249"><defs><style>.cls-1{fill:#a1d307;}.cls-2{fill:#b1e21c;}.cls-3{fill:#ff1469;}.cls-4{fill:#ffad09;}.cls-5{fill:#fae35a;}.cls-6{fill:#80e000;}.cls-7{fill:#fff;}.cls-8{fill:#8eeb11;}.cls-9{fill:#f7d71f;}.cls-10{fill:#83b600;}.cls-11{fill:#ff8a00;}.cls-12{fill:#07a5de;}.cls-13{fill:#ba59eb;}.cls-14{fill:#ff9b03;}.cls-15{fill:#ff1f14;}.cls-16{fill:#09c;}.cls-17{fill:#dc13fd;}.cls-18{fill:#f3d009;}.cls-19{fill:#5612ea;}.cls-20{fill:#f80;}.cls-21{fill:#4d08e2;}.cls-22{fill:#5410e8;}.cls-23{fill:#d800fc;}</style></defs><title>logo-pc</title><g id="Layer_2" data-name="Layer 2"><g id="Слой_1" data-name="Слой 1"><g id="_Group_" data-name="&lt;Group&gt;"><path class="cls-1" d="M1493.8282,676.78V854.533c0,29.3435-20.7849,65.27-46.1782,79.9421l-153.6768,88.7826c25.2993-14.7658,45.99-50.5986,45.99-79.848V818.9824L1447.65,756.8157C1473.0433,742.144,1493.8282,706.1231,1493.8282,676.78Z"/><path class="cls-2" d="M1493.8282,499.12V676.78c0,29.3434-20.7849,65.3643-46.1782,80.036l-107.6866,62.1667V641.229L1447.65,579.0623C1473.0433,564.3906,1493.8282,528.4637,1493.8282,499.12Z"/><path class="cls-3" d="M1493.8282,345.4436V499.12c0,29.3434-20.7849,65.27-46.1782,79.942L1339.9634,641.229V463.57L1447.65,401.403c22.0075-12.6967,40.5353-41.4758,45.05-67.9978A66.7346,66.7346,0,0,1,1493.8282,345.4436Z"/><path class="cls-4" d="M1457.5252,272.4612c17.4931,14.4836,31.4125,38.56,35.1744,60.944-4.5143,26.522-23.0421,55.3011-45.05,67.9978L1339.9634,463.57V434.32c0-29.3435-20.7849-65.27-46.1783-79.942l-25.3933-14.6718L1376.1724,277.54C1398.18,264.8432,1432.32,263.15,1457.5252,272.4612Z"/><path class="cls-5" d="M1448.3083,265.9718a58.6576,58.6576,0,0,1,9.2169,6.4894c-25.2053-9.3109-59.3452-7.618-81.3528,5.0787l-107.7806,62.1666-153.8649-88.7826,107.7807-62.2607c25.1112-14.5777,66.1167-14.6717,91.51-.3762L1447.65,265.5016a.0921.0921,0,0,1,.094.094A1.9689,1.9689,0,0,1,1448.3083,265.9718Z"/><path class="cls-6" d="M1339.9634,818.9824V943.41c0,29.2494-20.6909,65.0822-45.99,79.848L1139.92,1112.1344c25.3933-14.6717,46.0842-50.5986,46.0842-79.942V907.8591Z"/><polygon class="cls-7" points="1339.963 641.229 1339.963 818.982 1186.004 907.859 1186.004 730.106 1339.963 641.229"/><polygon class="cls-8" points="1339.963 463.57 1339.963 641.229 1186.004 730.106 1186.004 552.446 1339.963 463.57"/><path class="cls-7" d="M1339.9634,434.32V463.57l-153.9589,88.8767V523.197c0-29.3435-20.7849-65.3644-46.1783-79.942l-25.2993-14.6718,153.8649-88.8767,25.3933,14.6718C1319.1785,369.05,1339.9634,404.9768,1339.9634,434.32Z"/><path class="cls-9" d="M1160.7052,99.88l153.1124,88.4065c-25.3933-14.2955-66.3988-14.2015-91.51.3762l-107.7807,62.2607L960.6621,162.0472,1068.3487,99.88C1093.742,85.2088,1135.3119,85.2088,1160.7052,99.88Z"/><polygon class="cls-7" points="1268.392 339.706 1114.527 428.583 960.662 339.801 1114.527 250.924 1268.392 339.706"/><path class="cls-10" d="M1186.0045,907.8591v124.3333c0,29.3434-20.6909,65.27-46.0842,79.942l-.0941.094-133.8323,77.3087c-.094.094-.1881.094-.3762.1881a61.83,61.83,0,0,1-9.7811,4.42c20.6908-17.2111,36.303-47.589,36.303-73.0764V996.7358Z"/><polygon class="cls-7" points="1186.004 730.106 1186.004 907.859 1032.14 996.736 1032.14 818.982 1186.004 730.106"/><polygon class="cls-1" points="1186.004 552.446 1186.004 730.106 1032.14 818.982 1032.14 641.323 1186.004 552.446"/><path class="cls-11" d="M1186.0045,523.197v29.2493L1032.14,641.323V612.0737c0-29.3435-20.7849-65.3644-46.1782-80.0361L960.6621,517.46l153.8648-88.8767,25.2993,14.6718C1165.22,457.8326,1186.0045,493.8535,1186.0045,523.197Z"/><path class="cls-5" d="M1006.84,11.0038,1160.7052,99.88c-25.3933-14.6717-66.9632-14.6717-92.3565,0L960.6621,162.0472,852.8815,99.88c-25.3934-14.6717-66.9632-14.6717-92.3566,0L914.4838,11.0038C939.8772-3.6679,981.447-3.6679,1006.84,11.0038Z"/><polygon class="cls-7" points="1114.527 250.924 960.662 339.801 806.797 250.924 960.662 162.047 1114.527 250.924"/><polygon class="cls-4" points="1114.527 428.583 960.662 517.46 806.797 428.583 960.662 339.801 1114.527 428.583"/><path class="cls-12" d="M1032.14,996.7358v124.3333c0,25.4874-15.6122,55.8653-36.303,73.0764-21.3492,7.8061-49,7.8061-70.349,0-20.6909-17.2111-36.3031-47.589-36.3031-73.0764V996.7358l25.2993,14.5776c25.3934,14.6717,66.9632,14.6717,92.3566,0Z"/><path class="cls-7" d="M1032.14,818.9824V996.7358l-25.2992,14.5776c-25.3934,14.6717-66.9632,14.6717-92.3566,0l-25.2993-14.5776V818.9824L914.4838,833.56c25.3934,14.6717,66.9632,14.6717,92.3566,0Z"/><path class="cls-13" d="M1032.14,641.323V818.9824L1006.84,833.56c-25.3934,14.6717-66.9632,14.6717-92.3566,0l-25.2993-14.5776V641.323l25.2993,14.5777c25.3934,14.6717,66.9632,14.6717,92.3566,0Z"/><path class="cls-14" d="M1032.14,612.0737V641.323L1006.84,655.9007c-25.3934,14.6717-66.9632,14.6717-92.3566,0L889.1845,641.323V612.0737c0-29.3435,20.785-65.3644,46.1783-80.0361L960.6621,517.46l25.2993,14.5777C1011.3547,546.7093,1032.14,582.73,1032.14,612.0737Z"/><path class="cls-15" d="M806.7973,428.5832,960.6621,517.46l-25.2993,14.5777c-25.3933,14.6717-46.1783,50.6926-46.1783,80.0361V641.323L735.2256,552.4463V523.197c0-29.3435,20.785-65.3644,46.1783-79.942Z"/><polygon class="cls-7" points="806.797 250.924 960.662 339.801 806.797 428.583 652.932 339.706 806.797 250.924"/><path class="cls-9" d="M960.6621,162.0472,806.7973,250.9239,699.0166,188.6632c-25.1112-14.5777-66.2108-14.6717-91.6041-.3762L760.5249,99.88c25.3934-14.6717,66.9632-14.6717,92.3566,0Z"/><path class="cls-16" d="M925.4876,1194.1455a68.1047,68.1047,0,0,1-10.2514-4.7025l-.7524-.3762L781.31,1112.1344a1.9685,1.9685,0,0,1-.5643-.3762c-25.1112-14.86-45.52-50.5045-45.52-79.5658V907.8591l153.9589,88.8767v124.3333C889.1845,1146.5565,904.7967,1176.9344,925.4876,1194.1455Z"/><polygon class="cls-7" points="889.184 818.982 889.184 996.736 735.226 907.859 735.226 730.106 889.184 818.982"/><polygon class="cls-17" points="889.184 641.323 889.184 818.982 735.226 730.106 735.226 552.446 889.184 641.323"/><path class="cls-18" d="M806.7973,250.9239,652.9324,339.7065,545.1518,277.54c-22.1016-12.7907-56.3356-14.39-81.5409-4.9846a60.0653,60.0653,0,0,1,9.3109-6.5835,2.8564,2.8564,0,0,1,.6584-.47l133.08-76.8384.7524-.3762c25.3933-14.2955,66.4929-14.2015,91.6041.3762Z"/><path class="cls-7" d="M806.7973,428.5832,781.4039,443.255c-25.3933,14.5776-46.1783,50.5985-46.1783,79.942v29.2493L581.3608,463.57V434.32c0-29.3435,20.7849-65.27,46.1783-79.942l25.3933-14.6718Z"/><path class="cls-19" d="M780.7456,1111.7582l-153.2065-88.4065c-25.3934-14.6717-46.1783-50.5985-46.1783-79.942V818.9824l153.8648,88.8767v124.3333C735.2256,1061.2537,755.6344,1096.8984,780.7456,1111.7582Z"/><polygon class="cls-7" points="735.226 730.106 735.226 907.859 581.361 818.982 581.361 641.229 735.226 730.106"/><polygon class="cls-7" points="735.226 552.446 735.226 730.106 581.361 641.229 581.361 463.57 735.226 552.446"/><path class="cls-20" d="M652.9324,339.7065l-25.3933,14.6718c-25.3934,14.6717-46.1783,50.5985-46.1783,79.942V463.57L473.58,401.403c-22.0076-12.6967-40.5353-41.4758-45.05-67.9978,3.762-22.29,17.5872-46.3663,35.08-60.85,25.2053-9.405,59.4393-7.8061,81.5409,4.9846Z"/><path class="cls-21" d="M627.5391,1023.3517,473.58,934.4751c-25.3934-14.6718-46.1783-50.5986-46.1783-79.9421V676.78c0,29.3434,20.7849,65.3643,46.1783,80.036l107.7806,62.1667V943.41C581.3608,972.7532,602.1457,1008.68,627.5391,1023.3517Z"/><path class="cls-22" d="M581.3608,641.229V818.9824L473.58,756.8157c-25.3934-14.6717-46.1783-50.6926-46.1783-80.036V499.12c0,29.3434,20.7849,65.27,46.1783,79.942Z"/><path class="cls-23" d="M581.3608,463.57V641.229L473.58,579.0623c-25.3934-14.6717-46.1783-50.5986-46.1783-79.942V345.4436a66.7346,66.7346,0,0,1,1.1286-12.0384c4.5144,26.522,23.0421,55.3011,45.05,67.9978Z"/></g><path class="cls-12" d="M407.1176,2162.2q-22.8649,66.3783-73.6125,105.42-52.4426,40.6842-121.02,40.7053-88.6974,0-150.5764-60.79Q-.0094,2186.7439,0,2098.0717q0-87.0121,61.073-146.9529,61.0652-59.9457,148.0507-59.9574,71.9479,0,124.654,39.3268,52.7018,39.3085,72.7846,108.4647H308.958q-33.46-65.8052-99.8343-65.8153-51.2988,0-84.195,36.2559-32.9106,36.2589-32.9076,88.1121,0,51.327,33.4576,89.7942,33.4653,38.4909,84.2057,38.478,67.4874,0,99.2736-63.5778Z"/><path class="cls-12" d="M886.7219,2300.5117H801.3926V2071.8606q0-12.8121,1.6768-38.4833,1.6662-25.6474,1.6715-38.4726l-.5607.5451L707.15,2300.5117H645.804l-96.4807-307.2839-.55.5554q0,12.8514,1.3832,38.4731,1.3836,25.6555,1.3833,38.4882v229.7672H465.66V1898.9746H587.8066l89.2174,278.2906,88.6781-278.2906h121.02Z"/><path class="cls-12" d="M1322.8387,2300.5117h-99.8342l-25.645-72.491H1053.4721l-26.7718,72.491H928.5535l160.0531-401.5371h74.7393ZM1172.26,2153.2863l-45.725-143.8928-46.8568,143.8928Z"/><path class="cls-12" d="M1455.0092,2300.5117h-90.9049V1898.9746h139.9783q68.0451,0,106.5207,33.463,41.2651,35.1273,41.2655,102.0509,0,67.4867-44.1846,100.94-39.7012,30.112-109.6118,30.1255h-43.0632Zm0-320.6668v104.8433h40.9146q67.8174,0,67.8383-52.977,0-51.8614-67.8383-51.8663Z"/><path class="cls-12" d="M1921.23,1979.8449H1841.471v320.6668h-90.905V1979.8449h-79.1934v-80.87H1921.23Z"/><path class="cls-12" d="M42.5556,1705.4258H0V1446.5322H42.5556Z"/><path class="cls-12" d="M202.3363,1705.4258h-45.081V1487.07h-69.92v-41.543H272.2538v41.543H202.3363Z"/><path class="cls-12" d="M413.2972,1547.8635v41.0351H291.7021v-41.0351Z"/><path class="cls-12" d="M674.2488,1445.5273v219.8689H778.6025V1445.5273h43.5737v259.8985H481.2343V1445.5273h43.5633v219.8689H629.1622V1445.5273Z"/><path class="cls-12" d="M938.2951,1705.4258H894.7318V1445.5273h43.5633v122.0894l2.5386-3.0307v3.5441l109.929-122.6028H1101.12L990.7527,1568.6106l112.8206,136.8152h-56.8676l-105.872-133.75v5.07l-2.5386-4.06Z"/><path class="cls-12" d="M1384.5156,1572.1815q0,56.2407-39.5167,98.2793-39.52,42.0526-95.7538,42.0581-56.2283,0-95.7429-40.2891-39.52-40.2611-39.5326-96.5048,0-55.21,39.03-97.2683,38.991-42.0493,93.7116-42.0537,55.2184,0,96.5021,40.2787Q1384.5133,1516.9633,1384.5156,1572.1815Zm-224.4387,3.2929q0,38.6133,25.3416,66.0422,25.3277,27.4245,63.8266,27.4231,37.9885,0,63.5863-27.6771,25.569-27.7011,25.5769-65.7882,0-39.6126-25.5769-67.0477-25.5846-27.4328-64.6016-27.4341-37.9968,0-63.0735,27.9365Q1160.1015,1536.8635,1160.0769,1575.4744Z"/><path class="cls-12" d="M1515.8946,1510.1349l-66.9164,195.2909h-47.5293l96.2349-259.8985h37.5069l96.2508,259.8985h-47.5458Z"/><path class="cls-12" d="M1921.23,1705.4258h-42.5528V1668.94q-41.556,42.0617-91.7128,42.0559-58.77,0-97.5173-39.0061-38.7416-39.0189-38.7472-97.7768,0-56.2448,38.5014-95.756,38.501-39.52,94.7434-39.52,53.19,0,92.7013,40.5326v-33.942h44.584Zm-224.4387-131.2131q0,39.0025,26.8594,67.1194,26.8359,28.1182,65.8583,28.121,35.47,0,62.3088-28.6289,26.859-28.6118,26.8594-64.0778,0-37.487-26.3465-66.3767-26.3547-28.88-63.8321-28.8851-37.491,0-64.5967,27.6213Q1696.7944,1536.7266,1696.7913,1574.2127Z"/></g></g></svg>